<svg width="32" height="32" viewBox="0 0 32 32" fill="none" xmlns="http://www.w3.org/2000/svg">
<path d="M5.33301 5.33333C4.62576 5.33333 3.94749 5.61428 3.44739 6.11438C2.94729 6.61448 2.66634 7.29276 2.66634 8V22.6667C2.66634 23.3739 2.94729 24.0522 3.44739 24.5523C3.94749 25.0524 4.62576 25.3333 5.33301 25.3333H25.333C26.0403 25.3333 26.7185 25.0524 27.2186 24.5523C27.7187 24.0522 27.9997 23.3739 27.9997 22.6667V8C27.9997 7.29276 27.7187 6.61448 27.2186 6.11438C26.7185 5.61428 26.0403 5.33333 25.333 5.33333H5.33301ZM5.33301 4H25.333C26.3939 4 27.4113 4.42143 28.1614 5.17157C28.9116 5.92172 29.333 6.93913 29.333 8V22.6667C29.333 23.7275 28.9116 24.7449 28.1614 25.4951C27.4113 26.2452 26.3939 26.6667 25.333 26.6667H5.33301C4.27214 26.6667 3.25473 26.2452 2.50458 25.4951C1.75444 24.7449 1.33301 23.7275 1.33301 22.6667L1.33301 8C1.33301 6.93913 1.75444 5.92172 2.50458 5.17157C3.25473 4.42143 4.27214 4 5.33301 4Z" fill="#5981E3"/>
<path d="M6.66699 9.33398H14.667V16.0007H6.66699V9.33398ZM16.0003 14.6673H24.0003V21.334H16.0003V14.6673ZM6.66699 17.334H14.667V21.334H6.66699V17.334ZM16.0003 9.33398H24.0003V13.334H16.0003V9.33398Z" fill="#5981E3"/>
</svg>
