<svg width="25" height="24" viewBox="0 0 25 24" fill="none" xmlns="http://www.w3.org/2000/svg">
<path d="M24.9062 1.5C24.9531 1.40625 25 1.26562 25 1.17188C25 0.5625 24.4375 0.046875 23.8281 0.046875C23.7344 0.046875 23.5938 0.046875 23.5 0.09375C21.9531 0.515625 18.3906 1.64062 15.625 2.8125C15.625 2.71875 15.5781 2.57812 15.5312 2.48438C15.4375 2.10938 15.0625 1.6875 14.6875 1.54688C14.5469 1.5 14.3125 1.40625 14.125 1.40625C13.9375 1.40625 13.6562 1.5 13.4688 1.59375C11.4531 2.67188 6.4375 5.39062 3.71875 8.15625C0.0625 11.7656 0.0625 17.6719 3.71875 21.2812C5.21875 22.7812 8.17188 24 10.2812 24C12.3906 24 15.3438 22.7812 16.8438 21.2812C19.6094 18.5625 22.3281 13.5469 23.4062 11.5312C23.5 11.3438 23.5938 11.0625 23.5938 10.875C23.5938 10.6875 23.5 10.4531 23.4531 10.3125C23.3125 9.9375 22.8906 9.5625 22.5625 9.46875C22.4219 9.42188 22.3281 9.42188 22.1875 9.375C23.3594 6.60938 24.4844 3.04688 24.9062 1.5ZM23.3125 1.6875C22.7031 3.60938 21.5781 7.125 20.4531 9.51562L20.0781 10.3125L20.9219 10.5469C21.3906 10.6875 21.7656 10.7812 22.0469 10.8281C21.0625 12.7969 18.3906 17.6719 15.8125 20.25C12.7656 23.2969 7.79688 23.2969 4.75 20.25C1.70312 17.2031 1.70312 12.2344 4.75 9.1875C7.32812 6.60938 12.2031 3.9375 14.0781 2.90625C14.1719 3.23438 14.3125 3.60938 14.4531 4.07812L14.6875 4.92188L15.4844 4.54688C17.875 3.42188 21.3906 2.29688 23.3125 1.6875ZM16.3281 14.625C16.3281 11.3438 13.6562 8.625 10.3281 8.625C7.04688 8.625 4.32812 11.3438 4.32812 14.625C4.32812 17.9531 7.04688 20.625 10.3281 20.625C13.6562 20.625 16.3281 17.9531 16.3281 14.625ZM14.8281 14.6719C14.8281 17.1094 12.8125 19.1719 10.3281 19.1719C7.84375 19.1719 5.82812 17.1562 5.82812 14.6719C5.82812 12.1875 7.84375 10.1719 10.3281 10.1719C12.8125 10.1719 14.8281 12.1875 14.8281 14.6719ZM10.7031 13.125C10.7031 12.5156 10.2344 12 9.57812 12C8.96875 12 8.45312 12.5156 8.45312 13.125C8.45312 13.7812 8.96875 14.25 9.57812 14.25C10.2344 14.25 10.7031 13.7812 10.7031 13.125ZM12.2031 16.5469C12.2031 16.125 11.875 15.7969 11.4531 15.7969C11.0781 15.7969 10.7031 16.125 10.7031 16.5469C10.7031 16.9219 11.0781 17.2969 11.4531 17.2969C11.875 17.2969 12.2031 16.9219 12.2031 16.5469Z" fill="#5981E3"/>
</svg>
