<svg viewBox="0 0 30 22" fill="none" xmlns="http://www.w3.org/2000/svg">
<path d="M25.5 9.5C27.5625 9.5 29.25 7.85938 29.25 5.75C29.25 3.6875 27.5625 2 25.5 2C23.3906 2 21.75 3.6875 21.75 5.75C21.75 7.85938 23.3906 9.5 25.5 9.5ZM25.5 3.5C26.7188 3.5 27.75 4.53125 27.75 5.75C27.75 7.01562 26.7188 8 25.5 8C24.2344 8 23.25 7.01562 23.25 5.75C23.25 4.53125 24.2344 3.5 25.5 3.5ZM15 11C17.8594 11 20.25 8.65625 20.25 5.75C20.25 2.89062 17.8594 0.5 15 0.5C12.0938 0.5 9.75 2.89062 9.75 5.75C9.75 8.65625 12.0938 11 15 11ZM15 2C17.0625 2 18.75 3.6875 18.75 5.75C18.75 7.85938 17.0625 9.5 15 9.5C12.8906 9.5 11.25 7.85938 11.25 5.75C11.25 3.6875 12.8906 2 15 2ZM26.4375 11H24.5625C23.8125 11 23.1562 11.2344 22.5938 11.6094C23.0625 11.9375 23.4375 12.2656 23.8125 12.6875C24.0469 12.5938 24.2812 12.5 24.5625 12.5H26.4375C27.5625 12.5 28.5 13.5312 28.5 14.75C28.5 15.1719 28.8281 15.5 29.25 15.5C29.625 15.5 30 15.1719 30 14.75C30 12.6875 28.3594 11 26.4375 11ZM4.5 9.5C6.5625 9.5 8.25 7.85938 8.25 5.75C8.25 3.6875 6.5625 2 4.5 2C2.39062 2 0.75 3.6875 0.75 5.75C0.75 7.85938 2.39062 9.5 4.5 9.5ZM4.5 3.5C5.71875 3.5 6.75 4.53125 6.75 5.75C6.75 7.01562 5.71875 8 4.5 8C3.23438 8 2.25 7.01562 2.25 5.75C2.25 4.53125 3.23438 3.5 4.5 3.5ZM18.75 11.9375C17.1562 11.9375 16.7812 12.5 15 12.5C13.1719 12.5 12.7969 11.9375 11.2031 11.9375C9.51562 11.9375 7.875 12.7344 6.89062 14.1406C6.32812 15.0312 6 16.0625 6 17.1875V19.25C6 20.5156 6.98438 21.5 8.25 21.5H21.75C22.9688 21.5 24 20.5156 24 19.25V17.1875C24 16.0625 23.625 15.0312 23.0625 14.1406C22.0781 12.7344 20.4375 11.9375 18.75 11.9375ZM22.5 19.25C22.5 19.6719 22.125 20 21.75 20H8.25C7.82812 20 7.5 19.6719 7.5 19.25V17.1875C7.5 16.3906 7.6875 15.6406 8.15625 14.9844C8.76562 14.0469 9.9375 13.4375 11.2031 13.4375C12.5156 13.4375 12.9844 14 15 14C17.0156 14 17.4375 13.4375 18.75 13.4375C20.0156 13.4375 21.1875 14.0469 21.7969 14.9844C22.2656 15.6406 22.4531 16.3906 22.4531 17.1875V19.25H22.5ZM7.35938 11.6094C6.79688 11.2344 6.14062 11 5.4375 11H3.5625C1.59375 11 0 12.6875 0 14.75C0 15.1719 0.328125 15.5 0.75 15.5C1.125 15.5 1.5 15.1719 1.5 14.75C1.5 13.5312 2.39062 12.5 3.5625 12.5H5.4375C5.67188 12.5 5.90625 12.5938 6.14062 12.6875C6.51562 12.2656 6.89062 11.9375 7.35938 11.6094Z" fill="#707780
"/>
</svg>
