<svg width="30" height="22" viewBox="0 0 30 22" fill="none" xmlns="http://www.w3.org/2000/svg">
<path d="M4.28571 1.83179C3.52795 1.83179 2.80123 2.0974 2.26541 2.57018C1.72959 3.04296 1.42857 3.68419 1.42857 4.3528V18.2183C1.42857 18.887 1.72959 19.5282 2.26541 20.001C2.80123 20.4738 3.52795 20.7394 4.28571 20.7394H25.7143C26.472 20.7394 27.1988 20.4738 27.7346 20.001C28.2704 19.5282 28.5714 18.887 28.5714 18.2183V4.3528C28.5714 3.68419 28.2704 3.04296 27.7346 2.57018C27.1988 2.0974 26.472 1.83179 25.7143 1.83179H4.28571ZM4.28571 0.571289H25.7143C26.8509 0.571289 27.941 0.969697 28.7447 1.67887C29.5485 2.38804 30 3.34988 30 4.3528V18.2183C30 19.2213 29.5485 20.1831 28.7447 20.8923C27.941 21.6015 26.8509 21.9999 25.7143 21.9999H4.28571C3.14907 21.9999 2.05898 21.6015 1.25526 20.8923C0.451529 20.1831 0 19.2213 0 18.2183L0 4.3528C0 3.34988 0.451529 2.38804 1.25526 1.67887C2.05898 0.969697 3.14907 0.571289 4.28571 0.571289Z" fill="#5981E3"/>
<path d="M14.9994 5.44336C11.407 5.44336 8.37598 8.1178 8.37598 11.2875C8.37598 14.4572 11.2948 17.1317 14.9994 17.1317C18.704 17.1317 21.6227 14.4572 21.6227 11.2875C21.6227 8.1178 18.704 5.44336 14.9994 5.44336ZM14.9994 16.3392C11.8561 16.3392 9.27406 14.061 9.27406 11.2875C9.27406 8.51402 11.8561 6.23579 14.9994 6.23579C18.1426 6.23579 20.7246 8.51402 20.7246 11.2875C20.7246 14.061 18.1426 16.3392 14.9994 16.3392Z" fill="#5981E3"/>
<path d="M13.7632 8.01599L18.4781 10.8885C18.9272 11.0866 18.9272 11.681 18.4781 11.9781L13.7632 14.8507C13.2019 15.1478 12.5283 14.7516 12.5283 14.2564V8.61031C12.5283 8.01599 13.2019 7.71883 13.7632 8.01599Z" fill="#5981E3"/>
</svg>
