<svg width="18" height="16" viewBox="0 0 18 16" fill="none" xmlns="http://www.w3.org/2000/svg">
<path d="M11.4375 3.8125L12.8125 1.5625C13.25 0.90625 12.7812 0 12 0H6C5.1875 0 4.71875 0.90625 5.15625 1.5625L6.53125 3.8125C0.6875 7.53125 1 12.2812 1 12.875C1 14.625 2.53125 16 4.40625 16H13.5625C15.4375 16 16.9688 14.625 16.9688 12.875C16.9688 12.2812 17.25 7.5 11.4375 3.8125ZM6 1H12L10.4375 3.5H7.53125L6 1ZM16 12.875C16 14.0625 14.9062 15 13.5625 15H4.40625C3.0625 15 2 14.0625 2 12.875V12.7812C1.96875 10.9062 2.625 7.375 7.25 4.5H10.7188C15.3438 7.375 16 10.9062 16 12.7812V12.875ZM9.90625 9.71875L8.375 9.28125C8.1875 9.21875 8.09375 9.03125 8.09375 8.84375C8.09375 8.59375 8.25 8.40625 8.46875 8.40625H9.4375C9.5625 8.40625 9.75 8.46875 9.875 8.53125C9.90625 8.5625 9.96875 8.5625 10.0312 8.5625C10.0938 8.5625 10.1562 8.53125 10.2188 8.5L10.625 8.125C10.6562 8.0625 10.6875 8 10.6875 7.9375C10.6875 7.84375 10.6562 7.75 10.5938 7.71875C10.3438 7.53125 9.84375 7.34375 9.53125 7.34375V6.78125C9.53125 6.625 9.40625 6.5 9.25 6.5H8.71875C8.5625 6.5 8.4375 6.625 8.4375 6.78125V7.34375C7.625 7.34375 7 8.03125 7 8.84375C7 9.53125 7.4375 10.125 8.0625 10.3125L9.59375 10.75C9.78125 10.8125 9.875 11 9.875 11.1875C9.875 11.4375 9.71875 11.625 9.5 11.625H8.53125C8.40625 11.625 8.21875 11.5625 8.09375 11.5C8.0625 11.4688 8 11.4688 7.9375 11.4688C7.875 11.4688 7.8125 11.5 7.75 11.5312L7.34375 11.9062C7.3125 11.9688 7.28125 12.0312 7.28125 12.0938C7.28125 12.1875 7.3125 12.2812 7.375 12.3125C7.625 12.5 8.125 12.6875 8.4375 12.6875V13.25C8.4375 13.4062 8.5625 13.5 8.71875 13.5H9.25C9.40625 13.5 9.53125 13.4062 9.53125 13.25V12.6875C10.3438 12.6875 10.9688 12 10.9688 11.1875C11 10.5 10.5312 9.90625 9.90625 9.71875Z" fill="#707780"/>
</svg>
