<svg width="16" height="17" viewBox="0 0 16 17" fill="none" xmlns="http://www.w3.org/2000/svg">
<path d="M8 1.25C6.21875 1.25 4.5625 1.875 3.25 2.875L1.6875 1.3125C1.0625 0.6875 0 1.125 0 2V6C0 6.5625 0.4375 7 1 7H5C5.875 7 6.3125 5.9375 5.6875 5.3125L4.03125 3.625C5.15625 2.78125 6.53125 2.3125 8 2.3125C11.6875 2.3125 14.6875 5.3125 14.6875 9C14.6875 12.7188 11.6875 15.6875 8 15.6875C6.3125 15.6875 4.71875 15.0938 3.5 14C3.375 13.8438 3.125 13.875 3 14L2.78125 14.2188C2.625 14.375 2.625 14.625 2.78125 14.7812C4.15625 16 6 16.75 8 16.75C12.25 16.75 15.7188 13.3125 15.75 9.03125C15.75 4.75 12.25 1.28125 8 1.25ZM5 6H1V2L5 6Z" fill="#707780"/>
</svg>
