<svg width="48" height="48" viewBox="0 0 48 48" fill="none" xmlns="http://www.w3.org/2000/svg">
<circle cx="24" cy="24" r="24" fill="#AC93FC"/>
<path fill-rule="evenodd" clip-rule="evenodd" d="M28 15.5C28 15.2239 28.2239 15 28.5 15H33.5C33.7761 15 34 15.2239 34 15.5V20.5C34 20.7761 33.7761 21 33.5 21C33.2239 21 33 20.7761 33 20.5V16.7071L24.8536 24.8536C24.6583 25.0488 24.3417 25.0488 24.1464 24.8536L20.5 21.2071L14.8536 26.8536C14.6583 27.0488 14.3417 27.0488 14.1464 26.8536C13.9512 26.6583 13.9512 26.3417 14.1464 26.1464L20.1464 20.1464C20.3417 19.9512 20.6583 19.9512 20.8536 20.1464L24.5 23.7929L32.2929 16H28.5C28.2239 16 28 15.7761 28 15.5ZM33 32V25.5C33 25.2239 33.2239 25 33.5 25C33.7761 25 34 25.2239 34 25.5V32.5C34 32.7761 33.7761 33 33.5 33H14.5C14.2239 33 14 32.7761 14 32.5C14 32.2239 14.2239 32 14.5 32H33Z" fill="white"/>
</svg>
