<svg viewBox="0 0 24 24" fill="none" xmlns="http://www.w3.org/2000/svg">
<path d="M11.2031 0.328125L1.45312 3.98438C0.5625 4.3125 0 5.15625 0 6.09375V16.6406C0 17.4844 0.46875 18.2812 1.21875 18.6562L10.9688 23.5312C11.625 23.8594 12.3281 23.8594 12.9844 23.5312L22.7344 18.6562C23.4844 18.2812 23.9531 17.4844 23.9531 16.6406V6.09375C23.9531 5.15625 23.3906 4.3125 22.5 3.98438L12.75 0.328125C12.2812 0.140625 11.7188 0.140625 11.2031 0.328125ZM12 1.64062L22.5 5.57812L12 10.125L1.5 5.57812L12 1.64062ZM1.5 7.21875L11.25 11.4375V21.9844L1.5 17.1094V7.21875ZM12.75 21.9844V11.4375L22.5 7.21875V17.1094L12.75 21.9844Z" fill="#707780
"/>
</svg>
