<svg width="18" height="14" viewBox="0 0 18 14" fill="none" xmlns="http://www.w3.org/2000/svg">
<path d="M9 8C8.6875 8 8.40625 8.09375 8.15625 8.1875L5.125 4.4375C4.9375 4.25 4.625 4.21875 4.40625 4.375C4.21875 4.5625 4.1875 4.875 4.34375 5.09375L7.375 8.84375C7.125 9.15625 7 9.5625 7 10C7 11.125 7.875 12 9 12C10.0938 12 11 11.125 11 10C11 8.90625 10.0938 8 9 8ZM9 11C8.4375 11 8 10.5625 8 10C8 9.46875 8.4375 9 9 9C9.53125 9 10 9.46875 10 10C10 10.5625 9.53125 11 9 11ZM9 0C4 0 0 4.03125 0 9C0 10.6562 0.4375 12.2188 1.21875 13.5312C1.375 13.8438 1.71875 14 2.0625 14H15.9062C16.25 14 16.5938 13.8438 16.75 13.5312C17.5312 12.2188 18 10.6562 18 9C18 4.03125 13.9688 0 9 0ZM15.9062 13L2.0625 13.0312C1.375 11.8125 1 10.4375 1 9C1 4.59375 4.5625 1 9 1C13.4062 1 17 4.59375 17 9C17 10.4375 16.625 11.8125 15.9062 13Z" fill="#707780"/>
</svg>
