<svg width="12" height="16" viewBox="0 0 12 16" fill="none" xmlns="http://www.w3.org/2000/svg">
<path d="M6.84375 5.75L5.4375 5.3125C5.25 5.28125 5.15625 5.125 5.15625 4.9375C5.15625 4.6875 5.3125 4.5 5.53125 4.5H6.40625C6.53125 4.5 6.6875 4.5625 6.8125 4.625C6.90625 4.6875 7.03125 4.6875 7.125 4.59375L7.46875 4.25C7.59375 4.15625 7.59375 3.96875 7.46875 3.875C7.1875 3.65625 6.84375 3.53125 6.46875 3.53125V3C6.46875 2.875 6.375 2.75 6.21875 2.75H5.71875C5.59375 2.75 5.46875 2.875 5.46875 3V3.53125C4.75 3.53125 4.15625 4.15625 4.15625 4.9375C4.15625 5.5625 4.5625 6.09375 5.125 6.28125L6.53125 6.71875C6.71875 6.75 6.8125 6.90625 6.8125 7.09375C6.8125 7.34375 6.65625 7.5 6.4375 7.5H5.5625C5.4375 7.5 5.28125 7.46875 5.15625 7.40625C5.0625 7.34375 4.9375 7.34375 4.84375 7.4375L4.5 7.78125C4.375 7.875 4.375 8.0625 4.5 8.15625C4.78125 8.375 5.125 8.5 5.5 8.5V9C5.5 9.15625 5.59375 9.25 5.75 9.25H6.25C6.375 9.25 6.5 9.15625 6.5 9V8.5C7.21875 8.5 7.8125 7.875 7.8125 7.09375C7.8125 6.46875 7.40625 5.90625 6.84375 5.75ZM6 0C2.78125 0 0.46875 2.625 0.5 5.53125C0.5 6.90625 1 8.15625 1.84375 9.125C2.65625 10.0625 3.40625 11.5312 3.5 12V14.375C3.5 14.4688 3.53125 14.5625 3.5625 14.6562L4.34375 15.7812C4.4375 15.9375 4.59375 16 4.75 16H7.21875C7.375 16 7.53125 15.9375 7.625 15.7812L8.40625 14.6562C8.4375 14.5625 8.46875 14.4688 8.46875 14.375L8.5 12C8.5625 11.5312 9.3125 10.0312 10.125 9.125C10.9688 8.15625 11.5 6.90625 11.5 5.5C11.5 2.46875 9.03125 0 6 0ZM7.46875 14.2188L6.9375 15H5.03125L4.5 14.2188V14H7.46875V14.2188ZM7.46875 13H4.5L4.46875 12H7.5L7.46875 13ZM9.375 8.46875C8.9375 8.96875 8.25 9.96875 7.78125 11H4.1875C3.71875 9.96875 3.03125 8.96875 2.59375 8.46875C1.875 7.65625 1.5 6.59375 1.5 5.5C1.46875 3.125 3.375 1 6 1C8.46875 1 10.5 3.03125 10.5 5.5C10.5 6.59375 10.0938 7.65625 9.375 8.46875Z" fill="#707780"/>
</svg>
