<svg width="32" height="32" viewBox="0 0 32 32" fill="none" xmlns="http://www.w3.org/2000/svg">
    <path d="M7.14934 6.71875C7.27224 6.68466 7.39914 6.66717 7.52668 6.66675H27.96C28.72 6.66675 29.3333 7.26408 29.3333 8.00008C29.3331 8.09747 29.322 8.19453 29.3 8.28941L27.164 17.6227C27.0914 17.9225 26.9195 18.1889 26.6761 18.3785C26.4328 18.5681 26.1325 18.6697 25.824 18.6667H10.024L10.6667 21.3401V21.3334H26.6667V22.6667H10.6667V21.8614L9.25068 22.3987L5.00401 4.00008H1.33334V2.66675H6.66668V4.00008H6.49468L7.14801 6.71875H7.14934ZM7.59734 8.00008L9.89068 17.3334H25.824L27.96 8.00008H7.59734Z" fill="#5981E3"/>
    <path opacity="0.6" d="M9.33334 21.3333H10.6667V22.6666H9.33334V21.3333Z" fill="#5981E3"/>
    <path d="M23.3333 28C24.4379 28 25.3333 27.1046 25.3333 26C25.3333 24.8954 24.4379 24 23.3333 24C22.2288 24 21.3333 24.8954 21.3333 26C21.3333 27.1046 22.2288 28 23.3333 28Z" fill="#5981E3"/>
    <path d="M11.3333 28C12.4379 28 13.3333 27.1046 13.3333 26C13.3333 24.8954 12.4379 24 11.3333 24C10.2288 24 9.33334 24.8954 9.33334 26C9.33334 27.1046 10.2288 28 11.3333 28Z" fill="#5981E3"/>
    <path d="M13.3333 12H22.6667V13.3333H13.3333V12Z" fill="#5981E3"/>
</svg>
