<svg width="32" height="32" viewBox="0 0 32 32" fill="none" xmlns="http://www.w3.org/2000/svg">
<path d="M25.0469 13.5156L24.1562 12.3438L21.9062 14.0312L22.7969 15.2031L25.0469 13.5156ZM28 13C28.6094 13 29.1719 12.8125 29.6406 12.5312C29.9688 12.2969 30.25 12.0156 30.4844 11.6875C30.8125 11.2188 31 10.6562 31 10C31 9.39062 30.8125 8.82812 30.4844 8.35938C30.3438 8.17188 30.25 8.03125 30.1094 7.89062C29.9688 7.75 29.8281 7.65625 29.6406 7.51562C29.1719 7.1875 28.6094 7 28 7C27.3438 7 26.7812 7.1875 26.3125 7.51562C25.9844 7.75 25.7031 8.03125 25.4688 8.35938C25.1875 8.82812 25 9.39062 25 10C25 11.6875 26.3125 13 28 13ZM28 8.5C28.7969 8.5 29.5 9.20312 29.5 10C29.5 10.8438 28.7969 11.5 28 11.5C27.1562 11.5 26.5 10.8438 26.5 10C26.5 9.20312 27.1562 8.5 28 8.5ZM5.64062 15.7656C5.17188 15.4375 4.60938 15.25 4 15.25C3.34375 15.25 2.78125 15.4375 2.3125 15.7656C1.98438 16 1.70312 16.2812 1.46875 16.6094C1.1875 17.0781 1 17.6406 1 18.25C1 19.9375 2.3125 21.25 4 21.25C5.64062 21.25 7 19.9375 7 18.25C7 17.6406 6.8125 17.0781 6.48438 16.6094C6.25 16.2812 5.96875 16 5.64062 15.7656ZM4 19.75C3.15625 19.75 2.5 19.0938 2.5 18.25C2.5 17.4531 3.15625 16.75 4 16.75C4.79688 16.75 5.5 17.4531 5.5 18.25C5.5 19.0938 4.79688 19.75 4 19.75ZM8.125 19H10.375V17.5H8.125V19ZM30.1094 22.8906C29.9688 22.75 29.8281 22.6562 29.6406 22.5156C29.1719 22.1875 28.6094 22 28 22C27.3438 22 26.7812 22.1875 26.3125 22.5156C26.125 22.6562 25.9844 22.75 25.8906 22.8906L21.5781 20.3125C21.8125 19.6562 22 19 22 18.25C22 15.3906 19.6094 13 16.75 13C16.1875 13 15.7188 13.1406 15.2031 13.2812L13.375 9.34375C14.0312 8.78125 14.5 7.9375 14.5 7C14.5 6.39062 14.3125 5.82812 13.9844 5.35938C13.75 5.03125 13.4688 4.75 13.1406 4.51562C12.6719 4.1875 12.1094 4 11.5 4C10.8438 4 10.2812 4.1875 9.8125 4.51562C9.48438 4.75 9.20312 5.03125 8.96875 5.35938C8.6875 5.82812 8.5 6.39062 8.5 7C8.5 8.6875 9.8125 10 11.5 10C11.6875 10 11.8281 10 12.0156 9.95312L13.8438 13.8906C12.4375 14.8281 11.5 16.4219 11.5 18.25C11.5 21.1562 13.8438 23.5 16.75 23.5C18.3906 23.5 19.7969 22.75 20.7812 21.5781L25.0938 24.1562C25.0469 24.4375 25 24.7188 25 25C25 26.6875 26.3125 28 28 28C28.6094 28 29.1719 27.8125 29.6406 27.5312C29.9688 27.2969 30.25 27.0156 30.4844 26.6875C30.8125 26.2188 31 25.6562 31 25C31 24.3906 30.8125 23.8281 30.4844 23.3594C30.3438 23.1719 30.25 23.0312 30.1094 22.8906ZM11.5 8.5C10.6562 8.5 10 7.84375 10 7C10 6.20312 10.6562 5.5 11.5 5.5C12.2969 5.5 13 6.20312 13 7C13 7.84375 12.2969 8.5 11.5 8.5ZM16.75 22C14.6406 22 13 20.3594 13 18.25C13 16.1875 14.6406 14.5 16.75 14.5C18.8125 14.5 20.5 16.1875 20.5 18.25C20.5 20.3594 18.8125 22 16.75 22ZM28 26.5C27.1562 26.5 26.5 25.8438 26.5 25C26.5 24.2031 27.1562 23.5 28 23.5C28.7969 23.5 29.5 24.2031 29.5 25C29.5 25.8438 28.7969 26.5 28 26.5Z" fill="#355CC0"/>
</svg>
