<svg width="32" height="32" viewBox="0 0 32 32" fill="none" xmlns="http://www.w3.org/2000/svg">
<path d="M6.51383 7.23347C6.72916 7.44881 7.01716 7.44881 7.2325 7.23347C7.44783 7.01814 7.44783 6.73014 7.2325 6.51481L5.43583 4.71814C5.2205 4.50281 4.9325 4.50281 4.71716 4.71814C4.50183 4.93347 4.50183 5.22147 4.71716 5.43681L6.51383 7.23347Z" fill="#7c5ee2"/>
<path d="M25.4856 24.767C25.2703 24.5516 24.9823 24.5516 24.767 24.767C24.5516 24.9823 24.5516 25.2703 24.767 25.4856L26.5636 27.2823C26.779 27.4976 27.067 27.4976 27.2823 27.2823C27.4976 27.067 27.4976 26.779 27.2823 26.5636L25.4856 24.767Z" fill="#7c5ee2"/>
<path d="M14.6342 3.85505C14.9215 3.85505 15.1375 3.63972 15.1375 3.35172V0.765052C15.1375 0.477719 14.9222 0.261719 14.6342 0.261719C14.3469 0.261719 14.1309 0.477052 14.1309 0.765052V3.35239C14.1309 3.63972 14.3469 3.85505 14.6342 3.85505Z" fill="#7c5ee2"/>
<path d="M17.3656 28.1445C17.0783 28.1445 16.8623 28.3599 16.8623 28.6479V31.2352C16.8623 31.5225 17.0776 31.7385 17.3656 31.7385C17.6536 31.7385 17.869 31.5232 17.869 31.2352V28.6479C17.869 28.3599 17.653 28.1445 17.3656 28.1445Z" fill="#7c5ee2"/>
<path d="M3.35167 14.1309H0.836341C0.549008 14.1309 0.333008 14.3462 0.333008 14.6342C0.333008 14.9222 0.548341 15.1375 0.836341 15.1375H3.42367C3.71101 15.1375 3.92701 14.9222 3.92701 14.6342C3.92701 14.3462 3.63901 14.1309 3.35167 14.1309Z" fill="#7c5ee2"/>
<path d="M31.1629 16.8633H28.5756C28.2883 16.8633 28.0723 17.0786 28.0723 17.3666C28.0723 17.6539 28.2876 17.8699 28.5756 17.8699H31.1629C31.4503 17.8699 31.6663 17.6546 31.6663 17.3666C31.6663 17.0786 31.4509 16.8633 31.1629 16.8633Z" fill="#7c5ee2"/>
<path d="M26.5636 6.44122C24.4076 4.28522 20.8142 4.28522 18.6582 6.44122L13.9149 11.1846C13.4836 11.6159 13.1962 12.0472 12.9089 12.5499C13.3402 12.4779 13.8429 12.4059 14.3462 12.4059C15.0649 12.4059 15.7836 12.5499 16.4302 12.7652L20.7422 8.45322C21.8202 7.37522 23.5449 7.37522 24.5509 8.45322C25.6289 9.53122 25.6289 11.2559 24.5509 12.2619L19.6642 17.1486C19.1609 17.6519 18.4422 17.9392 17.7956 17.9392C17.0769 17.9392 16.3582 17.5079 15.9269 17.0766C15.5676 16.7172 14.9929 16.5732 14.4896 16.5732C13.9862 16.5732 13.4836 16.7886 13.0522 17.1479L12.8369 17.3632C13.1242 17.9379 13.4836 18.5132 13.9869 19.0159C15.2802 20.3092 16.7176 20.5972 18.4422 20.5972C19.6642 20.5972 20.9576 19.8786 21.8202 19.0159L26.5636 14.2726C28.7196 12.1186 28.7196 8.59722 26.5636 6.44122ZM25.2702 14.2746C25.2702 14.2746 21.4616 18.0832 21.3896 18.1552C21.2456 18.2992 20.9582 18.2992 20.8149 18.1552C20.6709 18.0112 20.6709 17.7959 20.8149 17.6519L24.6956 13.7712C24.8396 13.6272 25.1269 13.6272 25.2702 13.7712C25.4142 13.9152 25.4142 14.1306 25.2702 14.2746ZM26.3482 13.1246C26.3482 13.1246 26.2042 13.2686 26.0609 13.4119C25.9169 13.5559 25.7016 13.5559 25.5576 13.4119C25.4136 13.2679 25.4856 12.9806 25.6296 12.8372L25.8449 12.6219C25.9889 12.4779 26.2762 12.4779 26.4196 12.6219C26.5636 12.7652 26.4922 12.9806 26.3482 13.1246Z" fill="#7c5ee2"/>
<path d="M15.785 21.031L11.473 25.343C10.9696 25.8463 10.251 26.1336 9.53229 26.1336C8.81363 26.1336 8.16696 25.8463 7.59163 25.343C6.51363 24.265 6.51363 22.5403 7.59163 21.5343C7.59163 21.5343 11.329 17.797 11.9036 17.2223C12.4783 16.6476 13.197 15.857 14.347 15.857C15.1376 15.857 15.9996 16.5036 16.2156 16.7196C16.575 17.079 17.1496 17.223 17.653 17.223C18.1563 17.223 18.659 17.0076 19.0903 16.6483L19.2343 16.5043C18.947 15.9296 18.5876 15.3543 18.0843 14.8516C17.0063 13.7736 15.641 13.127 14.2036 13.127C12.9816 13.127 11.5443 13.4863 10.251 14.7796C9.31696 15.7136 5.50762 19.523 5.50762 19.523C3.35162 21.679 3.35162 25.2723 5.50762 27.4283C6.58562 28.5063 8.02296 29.081 9.46029 29.081C10.8976 29.081 12.335 28.5063 13.413 27.4283L18.1563 22.685C18.5876 22.2536 18.875 21.8223 19.1623 21.3196C18.2283 21.6056 16.4316 21.3903 15.785 21.031ZM16.719 22.7556L13.341 26.1336C13.269 26.2056 13.197 26.2056 13.0536 26.2056C12.9096 26.2056 12.8383 26.2056 12.7663 26.1336C12.6223 25.9896 12.6223 25.7743 12.7663 25.6303L16.1443 22.2523C16.2883 22.1083 16.5036 22.1083 16.6476 22.2523C16.791 22.3963 16.863 22.6116 16.719 22.7556Z" fill="#7c5ee2"/>
</svg>
