<svg width="21" height="21" viewBox="0 0 21 21" fill="none" xmlns="http://www.w3.org/2000/svg">
<path d="M10.5 16C11.9587 16 13.3576 15.4205 14.3891 14.3891C15.4205 13.3576 16 11.9587 16 10.5C16 9.04131 15.4205 7.64236 14.3891 6.61091C13.3576 5.57946 11.9587 5 10.5 5C9.04131 5 7.64236 5.57946 6.61091 6.61091C5.57946 7.64236 5 9.04131 5 10.5C5 11.9587 5.57946 13.3576 6.61091 14.3891C7.64236 15.4205 9.04131 16 10.5 16ZM10.5 17C8.77609 17 7.12279 16.3152 5.90381 15.0962C4.68482 13.8772 4 12.2239 4 10.5C4 8.77609 4.68482 7.12279 5.90381 5.90381C7.12279 4.68482 8.77609 4 10.5 4C12.2239 4 13.8772 4.68482 15.0962 5.90381C16.3152 7.12279 17 8.77609 17 10.5C17 12.2239 16.3152 13.8772 15.0962 15.0962C13.8772 16.3152 12.2239 17 10.5 17Z" fill="#707780"/>
<path d="M2 4C3.10457 4 4 3.10457 4 2C4 0.89543 3.10457 0 2 0C0.89543 0 0 0.89543 0 2C0 3.10457 0.89543 4 2 4Z" fill="#707780"/>
<path d="M19 21C20.1046 21 21 20.1046 21 19C21 17.8954 20.1046 17 19 17C17.8954 17 17 17.8954 17 19C17 20.1046 17.8954 21 19 21Z" fill="#707780"/>
<path d="M18.5 5C17.837 5 17.2011 4.73661 16.7322 4.26777C16.2634 3.79893 16 3.16304 16 2.5C16 1.83696 16.2634 1.20107 16.7322 0.732233C17.2011 0.263392 17.837 0 18.5 0C19.163 0 19.7989 0.263392 20.2678 0.732233C20.7366 1.20107 21 1.83696 21 2.5C21 3.16304 20.7366 3.79893 20.2678 4.26777C19.7989 4.73661 19.163 5 18.5 5ZM18.5 4C18.8978 4 19.2794 3.84196 19.5607 3.56066C19.842 3.27936 20 2.89782 20 2.5C20 2.10218 19.842 1.72064 19.5607 1.43934C19.2794 1.15804 18.8978 1 18.5 1C18.1022 1 17.7206 1.15804 17.4393 1.43934C17.158 1.72064 17 2.10218 17 2.5C17 2.89782 17.158 3.27936 17.4393 3.56066C17.7206 3.84196 18.1022 4 18.5 4ZM2.5 20C1.83696 20 1.20107 19.7366 0.732233 19.2678C0.263392 18.7989 0 18.163 0 17.5C0 16.837 0.263392 16.2011 0.732233 15.7322C1.20107 15.2634 1.83696 15 2.5 15C3.16304 15 3.79893 15.2634 4.26777 15.7322C4.73661 16.2011 5 16.837 5 17.5C5 18.163 4.73661 18.7989 4.26777 19.2678C3.79893 19.7366 3.16304 20 2.5 20ZM2.5 19C2.89782 19 3.27936 18.842 3.56066 18.5607C3.84196 18.2794 4 17.8978 4 17.5C4 17.1022 3.84196 16.7206 3.56066 16.4393C3.27936 16.158 2.89782 16 2.5 16C2.10218 16 1.72064 16.158 1.43934 16.4393C1.15804 16.7206 1 17.1022 1 17.5C1 17.8978 1.15804 18.2794 1.43934 18.5607C1.72064 18.842 2.10218 19 2.5 19Z" fill="#707780"/>
<path d="M3 3H4V4H3V3ZM4 4H5V5H4V4ZM5 5H6V6H5V5ZM4 15H5V16H4V15ZM5 14H6V15H5V14ZM15 5H16V6H15V5ZM16 4H17V5H16V4ZM15 15H16V16H15V15ZM16 16H17V17H16V16ZM17 17H18V18H17V17Z" fill="#707780"/>
<path d="M11.121 6.874C11.0584 6.75163 10.9605 6.65091 10.84 6.58492C10.7194 6.51894 10.5818 6.49074 10.445 6.504C10.3183 6.50589 10.1945 6.54274 10.0874 6.6105C9.9803 6.67826 9.89399 6.77429 9.838 6.888L7.078 12.458C7.02181 12.5698 6.99516 12.6941 7.00059 12.819C7.00601 12.944 7.04334 13.0655 7.109 13.172C7.243 13.386 7.477 13.512 7.724 13.499C7.84647 13.4923 7.96496 13.4532 8.06726 13.3855C8.16955 13.3178 8.25196 13.2241 8.306 13.114L9 12.004H12.012L12.693 13.114C12.747 13.2241 12.8294 13.3178 12.9317 13.3855C13.034 13.4532 13.1525 13.4923 13.275 13.499C13.3974 13.5045 13.519 13.477 13.6272 13.4195C13.7353 13.362 13.8261 13.2765 13.89 13.172C13.9556 13.0657 13.993 12.9444 13.9986 12.8197C14.0042 12.6949 13.9779 12.5707 13.922 12.459L11.12 6.874H11.121ZM9.533 10.994L10.5 8.649L11.461 10.994H9.533Z" fill="#707780"/>
</svg>
