<svg width="21" height="21" viewBox="0 0 21 21" fill="none" xmlns="http://www.w3.org/2000/svg">
<path d="M2.163 14.602C1.5303 13.3271 1.20073 11.9233 1.2 10.5C1.2 8.03349 2.17982 5.668 3.92391 3.92391C5.668 2.17982 8.03349 1.2 10.5 1.2C11.9251 1.20132 13.3307 1.53192 14.607 2.166C14.8795 1.81894 15.2245 1.53565 15.618 1.336C14.0549 0.458919 12.2924 -0.0011677 10.5 2.22562e-06C4.701 2.22562e-06 0 4.702 0 10.5C0 12.36 0.488 14.103 1.336 15.619C1.537 15.222 1.816 14.874 2.163 14.602ZM19.664 5.382C19.464 5.778 19.184 6.127 18.837 6.399C19.4694 7.67328 19.799 9.07641 19.8 10.499C19.8 12.9655 18.8202 15.331 17.0761 17.0751C15.332 18.8192 12.9665 19.799 10.5 19.799C9.07501 19.7984 7.66944 19.4685 6.393 18.835C6.1211 19.182 5.77631 19.465 5.383 19.664C6.94582 20.5409 8.70797 21.001 10.5 21C16.3 21 21 16.299 21 10.5C21 8.64 20.512 6.897 19.664 5.382Z" fill="#707780"/>
<path d="M14.213 10.011L15.848 5.635C15.45 5.35479 15.1678 4.93903 15.0544 4.46566C14.941 3.99229 15.0041 3.4938 15.2319 3.06362C15.4597 2.63345 15.8366 2.30113 16.2919 2.12894C16.7472 1.95675 17.2496 1.95652 17.7051 2.12829C18.1605 2.30006 18.5377 2.63203 18.7659 3.062C18.9941 3.49196 19.0577 3.99039 18.9447 4.46387C18.8317 4.93734 18.5499 5.35336 18.1522 5.63394C17.7544 5.91452 17.2679 6.04041 16.784 5.988L15.149 10.363C15.4309 10.5609 15.6569 10.8282 15.8052 11.1391C15.9534 11.45 16.0189 11.7939 15.9952 12.1375C15.9715 12.4811 15.8595 12.8128 15.6699 13.1004C15.4804 13.388 15.2199 13.6218 14.9135 13.7791C14.6071 13.9364 14.2653 14.012 13.9211 13.9984C13.577 13.9848 13.2421 13.8826 12.9491 13.7016C12.656 13.5207 12.4147 13.2671 12.2484 12.9655C12.0821 12.6639 11.9966 12.3244 12 11.98L8.717 11.026C8.51488 11.364 8.21742 11.6348 7.86196 11.8043C7.5065 11.9739 7.10888 12.0346 6.719 11.979L5.233 15.424C5.61631 15.724 5.87704 16.1535 5.96633 16.6321C6.05562 17.1106 5.96734 17.6052 5.71803 18.0233C5.46871 18.4414 5.07549 18.7542 4.61206 18.9031C4.14862 19.052 3.64679 19.0267 3.20063 18.8321C2.75446 18.6375 2.39458 18.2868 2.18845 17.8459C1.98232 17.4049 1.94408 16.9039 2.08091 16.4368C2.21773 15.9696 2.52022 15.5684 2.93168 15.3083C3.34315 15.0482 3.83534 14.9472 4.316 15.024L5.796 11.596C5.52171 11.3892 5.30532 11.1152 5.16767 10.8004C5.03003 10.4857 4.97578 10.1408 5.01016 9.79899C5.04453 9.45718 5.16636 9.12999 5.36392 8.84895C5.56147 8.56791 5.82809 8.34249 6.13807 8.19442C6.44805 8.04635 6.79094 7.98062 7.1337 8.00357C7.47646 8.02651 7.80754 8.13736 8.09502 8.32542C8.38249 8.51348 8.61669 8.77243 8.77502 9.07729C8.93335 9.38216 9.01049 9.72267 8.999 10.066L12.259 11.014C12.4512 10.6742 12.7386 10.3981 13.0858 10.2197C13.433 10.0413 13.8249 9.9694 14.213 10.011ZM4 18C4.26522 18 4.51957 17.8946 4.70711 17.7071C4.89464 17.5196 5 17.2652 5 17C5 16.7348 4.89464 16.4804 4.70711 16.2929C4.51957 16.1054 4.26522 16 4 16C3.73478 16 3.48043 16.1054 3.29289 16.2929C3.10536 16.4804 3 16.7348 3 17C3 17.2652 3.10536 17.5196 3.29289 17.7071C3.48043 17.8946 3.73478 18 4 18ZM14 13C14.2652 13 14.5196 12.8946 14.7071 12.7071C14.8946 12.5196 15 12.2652 15 12C15 11.7348 14.8946 11.4804 14.7071 11.2929C14.5196 11.1054 14.2652 11 14 11C13.7348 11 13.4804 11.1054 13.2929 11.2929C13.1054 11.4804 13 11.7348 13 12C13 12.2652 13.1054 12.5196 13.2929 12.7071C13.4804 12.8946 13.7348 13 14 13Z" fill="#707780"/>
</svg>
