<svg width="53" height="52" viewBox="0 0 53 52" fill="none" xmlns="http://www.w3.org/2000/svg">
<rect x="0.5" width="52" height="52" rx="4" fill="#F6F2FF"/>
<path d="M34.1125 23.4375C34.1125 23.4375 34.075 23.4375 34.0375 23.4375C32.2 23.5125 28.7875 23.925 26.5 25.2C24.175 23.925 20.7625 23.5125 18.925 23.4375C18.8875 23.4375 18.85 23.4375 18.85 23.4375C18.0625 23.4375 16.9 23.9625 16.9 25.3125V31.9875C16.9 32.9625 17.6875 33.7875 18.7 33.8625C19.975 33.9375 23.2 34.2 25.3375 35.25C25.525 35.3625 25.7125 35.4 25.9 35.4H25.975H26.9875H27.1C27.2875 35.4 27.4375 35.3625 27.625 35.25C29.7625 34.2 32.9875 33.9375 34.2625 33.8625C35.275 33.7875 36.1 32.9625 36.1 31.9875V25.3125C36.1 23.9625 34.9 23.4375 34.1125 23.4375ZM25.9 34.2C25.8625 34.2 25.8625 34.2 25.8625 34.2C23.65 33.075 20.4625 32.7375 18.775 32.6625C18.3625 32.625 18.1 32.325 18.1 31.9875V25.3125C18.1 25.0875 18.1375 24.9375 18.2875 24.825C18.475 24.675 18.7 24.6375 18.85 24.6375C20.2375 24.7125 23.6875 25.0125 25.9 26.25V34.2ZM34.9 31.9875C34.9 32.325 34.6 32.625 34.1875 32.6625C32.5 32.7375 29.3125 33.075 27.1 34.2C27.1 34.2 27.1 34.2 27.0625 34.2V26.25C29.275 25.0125 32.725 24.7125 34.1125 24.6375C34.15 24.6375 34.8625 24.6375 34.8625 25.3125V31.9875H34.9ZM26.5 23.4C28.4875 23.4 30.1 21.825 30.1 19.8C30.1 17.8125 28.4875 16.2 26.5 16.2C24.475 16.2 22.9 17.8125 22.9 19.8C22.9 21.7875 24.475 23.4 26.5 23.4ZM26.5 17.4C27.8125 17.4 28.9 18.4875 28.9 19.8C28.9 21.15 27.8125 22.2 26.5 22.2C25.15 22.2 24.1 21.15 24.1 19.8C24.1 18.4875 25.15 17.4 26.5 17.4Z" fill="#7C5EE2"/>
</svg>
