<svg width="32" height="32" viewBox="0 0 32 32" fill="none" xmlns="http://www.w3.org/2000/svg">
<path d="M14.9375 0.4375L1.9375 5.3125C0.75 5.75 0 6.875 0 8.125V22.1875C0 23.3125 0.625 24.375 1.625 24.875L14.625 31.375C15.5 31.8125 16.4375 31.8125 17.3125 31.375L30.3125 24.875C31.3125 24.375 31.9375 23.3125 31.9375 22.1875V8.125C31.9375 6.875 31.1875 5.75 30 5.3125L17 0.4375C16.375 0.1875 15.625 0.1875 14.9375 0.4375ZM16 2.1875L30 7.4375L16 13.5L2 7.4375L16 2.1875ZM2 9.625L15 15.25V29.3125L2 22.8125V9.625ZM17 29.3125V15.25L30 9.625V22.8125L17 29.3125Z" fill="#5981E3"/>
</svg>
