<svg width="34" height="35" viewBox="0 0 34 35" fill="none" xmlns="http://www.w3.org/2000/svg">
<path d="M32.375 26.375L24.625 18.5625C23.625 17.625 22.375 17.125 21.0625 17.125C20.125 17.125 19.125 17.375 18.3125 17.9375L13 12.625V8L5 2L1 6L7 14H11.5625L16.875 19.375C15.625 21.3125 15.8125 23.9375 17.5625 25.6875L25.3125 33.4375C25.6875 33.8125 26.25 34.0625 26.75 34.0625C27.25 34.0625 27.75 33.8125 28.125 33.4375L32.375 29.1875C33.1875 28.4375 33.1875 27.125 32.375 26.375ZM11 11.9375V12H8L3.625 6.1875L5.1875 4.6875L11 9V11.9375ZM26.75 32L18.9375 24.25C18.375 23.6875 18.0625 22.9375 18.0625 22.125C18.0625 21.3125 18.375 20.5625 18.9375 20C19.5 19.4375 20.25 19.125 21.0625 19.125C21.875 19.125 22.625 19.4375 23.1875 20L31 27.8125L26.75 32ZM5 29C5 29.5625 5.4375 30 6 30C6.5 30 7 29.5625 7 29C7 28.5 6.5 28 6 28C5.4375 28 5 28.5 5 29ZM18.25 6.1875C19.6875 4.8125 21.5625 4 23.5 4C23.9375 4 24.375 4.0625 24.8125 4.125L20.5 8.5L21.3125 13.6875L26.5 14.5L30.875 10.1875C31.25 12.5625 30.5 15 28.8125 16.75C28.25 17.3125 27.625 17.75 26.9375 18.0625L28.375 19.5625C29.0625 19.1875 29.625 18.6875 30.1875 18.125C32.5625 15.75 33.5 12.4375 32.6875 9.1875C32.5625 8.5625 32.0625 8.125 31.5 7.9375C30.875 7.8125 30.25 7.9375 29.8125 8.375L25.8125 12.375L23.0625 11.9375L22.625 9.1875L26.625 5.1875C27 4.75 27.1875 4.125 27.0625 3.5C26.875 2.9375 26.375 2.4375 25.8125 2.3125C22.5625 1.5 19.25 2.4375 16.875 4.8125C16.0625 5.625 15.4375 6.5625 15 7.5625V11.8125L16.375 13.1875C15.75 10.625 16.4375 8 18.25 6.1875ZM7.6875 31.25C6.625 32.25 4.8125 32.25 3.75 31.25C2.6875 30.125 2.6875 28.375 3.75 27.3125L12.875 18.1875L11.5 16.8125L2.375 25.9375C0.5 27.75 0.5 30.8125 2.375 32.625C3.25 33.5625 4.4375 34 5.6875 34C7 34 8.1875 33.5625 9.0625 32.625L15.4375 26.25C15 25.6875 14.6875 25.0625 14.4375 24.4375L7.6875 31.25Z" fill="#5981E3"/>
</svg>
