<svg width="48" height="48" viewBox="0 0 48 48" fill="none" xmlns="http://www.w3.org/2000/svg">
<path d="M24 26.4C22.1 26.4 20.5 24.8 20.5 22.9C20.5 21 22.1 19.4 24 19.4C25.9 19.4 27.5 21 27.5 22.9C27.5 24.8 25.9 26.4 24 26.4ZM24 20.9C22.9 20.9 22 21.8 22 22.9C22 24 22.9 24.9 24 24.9C25.1 24.9 26 24 26 22.9C26 21.8 25.1 20.9 24 20.9Z" fill="#7c5ee2"/>
<path d="M24 31.8C19.1 31.8 15.1 27.8 15.1 22.9C15.1 18 19.1 14 24 14C28.9 14 32.9 18 32.9 22.9C32.9 27.8 28.9 31.8 24 31.8ZM24 15.5C19.9 15.5 16.6 18.8 16.6 22.9C16.6 27 19.9 30.3 24 30.3C28.1 30.3 31.4 27 31.4 22.9C31.4 18.8 28.1 15.5 24 15.5Z" fill="#7c5ee2"/>
<path d="M26.3 21.3C26.1 21.3 25.9 21.2 25.8 21.1C25.5 20.8 25.5 20.3 25.8 20L38.4 7.3C38.7 7 39.2 7 39.5 7.3C39.8 7.6 39.8 8.1 39.5 8.4L26.8 21.1C26.6 21.3 26.5 21.3 26.3 21.3Z" fill="#7c5ee2"/>
<path d="M12.4 6.00001C12.4 6.20001 12.6 6.40001 12.8 6.40001V5.60001C12.5 5.70001 12.4 5.90001 12.4 6.00001Z" fill="#7c5ee2"/>
<path d="M13.3 7.3V8.3C13.6 8.2 13.7 8 13.7 7.8C13.7 7.5 13.6 7.4 13.3 7.3Z" fill="#7c5ee2"/>
<path d="M13.1 3C10.9 3 9.20001 4.7 9.20001 6.9C9.20001 9.1 10.9 10.8 13.1 10.8C15.3 10.8 17 9.1 17 6.9C17 4.7 15.3 3 13.1 3ZM13.3 8.8V9.1C13.3 9.2 13.3 9.3 13.2 9.4C13.1 9.5 13.1 9.5 13 9.5C12.9 9.5 12.8 9.4 12.8 9.4C12.8 9.4 12.7 9.2 12.7 9.1V8.8C12.1 8.7 11.8 8.4 11.7 8.2C11.6 8 11.5 7.9 11.5 7.7C11.5 7.5 11.6 7.4 11.8 7.4C12 7.4 12.1 7.6 12.1 7.7C12.2 7.9 12.3 8.1 12.5 8.2C12.6 8.2 12.6 8.3 12.7 8.3V7.2C12.5 7.1 12.3 7.1 12.2 7C12 6.9 11.9 6.8 11.8 6.7C11.7 6.5 11.6 6.4 11.6 6.2C11.6 5.6 12 5.3 12.7 5.2V4.9C12.7 4.8 12.8 4.7 12.8 4.6C12.8 4.5 12.9 4.5 13 4.5C13.1 4.5 13.2 4.6 13.2 4.6C13.3 4.7 13.3 4.8 13.3 4.9V5.2C13.4 5.2 13.5 5.3 13.6 5.3C14 5.4 14.3 5.7 14.3 6.1C14.3 6.3 14.2 6.5 14 6.5C13.8 6.5 13.7 6.4 13.6 6.2C13.5 6 13.4 5.9 13.3 5.9C13.2 5.9 13.2 5.8 13.2 5.8V6.7C13.4 6.8 13.5 6.8 13.6 6.8C13.8 6.9 13.9 6.9 14 7C14.1 7.1 14.2 7.2 14.3 7.3C14.4 7.4 14.4 7.6 14.4 7.8C14.5 8.2 14.1 8.7 13.3 8.8Z" fill="#7c5ee2"/>
<path d="M34.9 29.2C32.7 33 28.7 35.5 24 35.5C17 35.5 11.4 29.8 11.4 22.9C11.4 15.9 17.1 10.3 24 10.3C30.9 10.3 36.6 16 36.6 22.9V23C36.8 23 37 22.9 37.1 22.9C37.4 22.9 37.7 23 38.1 23C38.1 22.9 38.1 22.9 38.1 22.8C38.1 15 31.8 8.7 24 8.7C16.2 8.7 9.90002 15.1 9.90002 22.9C9.90002 30.7 16.2 37 24 37C29.2 37 33.8 34.1 36.2 29.9C35.7 29.8 35.3 29.5 34.9 29.2Z" fill="#7c5ee2"/>
<path d="M36.2 25.6C36.2 25.8 36.4 26 36.6 26V25.2C36.3 25.3 36.2 25.5 36.2 25.6Z" fill="#7c5ee2"/>
<path d="M37.2 26.8V27.8C37.5 27.7 37.6 27.5 37.6 27.3C37.6 27 37.4 26.9 37.2 26.8Z" fill="#7c5ee2"/>
<path d="M36.9 22.6C34.7 22.6 33 24.3 33 26.5C33 28.7 34.7 30.4 36.9 30.4C39.1 30.4 40.8 28.7 40.8 26.5C40.8 24.3 39.1 22.6 36.9 22.6ZM37.2 28.3V28.6C37.2 28.7 37.2 28.8 37.1 28.9C37 29 37 29 36.9 29C36.8 29 36.7 28.9 36.7 28.9C36.7 28.9 36.6 28.7 36.6 28.6V28.3C36 28.2 35.7 27.9 35.6 27.7C35.5 27.5 35.4 27.4 35.4 27.2C35.4 27 35.5 26.9 35.7 26.9C35.9 26.9 36 27.1 36 27.2C36.1 27.4 36.2 27.6 36.4 27.7C36.5 27.7 36.5 27.8 36.6 27.8V26.7C36.4 26.6 36.2 26.6 36.1 26.5C35.9 26.4 35.8 26.3 35.7 26.2C35.6 26 35.5 25.9 35.5 25.7C35.5 25.1 35.9 24.8 36.6 24.7V24.3C36.6 24.2 36.7 24.1 36.7 24C36.7 23.9 36.8 23.9 36.9 23.9C37 23.9 37.1 24 37.1 24C37.1 24 37.2 24.2 37.2 24.3V24.6C37.3 24.6 37.4 24.7 37.5 24.7C37.9 24.8 38.2 25.1 38.2 25.5C38.2 25.7 38.1 25.9 37.9 25.9C37.7 25.9 37.6 25.8 37.5 25.6C37.4 25.4 37.3 25.3 37.2 25.3C37.1 25.3 37.1 25.2 37.1 25.2V26.1C37.3 26.2 37.4 26.2 37.5 26.2C37.7 26.3 37.8 26.3 37.9 26.4C38 26.5 38.1 26.6 38.2 26.7C38.3 26.8 38.3 27 38.3 27.2C38.3 27.8 37.9 28.2 37.2 28.3Z" fill="#7c5ee2"/>
<path d="M15.7 39.3C9.69998 36.3 5.59998 30.1 5.59998 22.9C5.59998 17.8 7.69998 13.2 11 9.9C10.6 9.6 10.2 9.2 9.99998 8.8C6.29998 12.4 4.09998 17.4 4.09998 22.9C4.09998 30.6 8.49998 37.3 15 40.6C15.1 40.1 15.4 39.6 15.7 39.3Z" fill="#7c5ee2"/>
<path d="M24 3C21.1 3 18.4 3.6 15.9 4.8C16.2 5.2 16.4 5.6 16.5 6.2C18.8 5.2 21.3 4.6 24 4.6C34.1 4.6 42.4 12.8 42.4 23C42.4 33.1 34.2 41.4 24 41.4C23.3 41.4 22.6 41.3 21.9 41.3C21.9 41.4 21.9 41.6 21.9 41.7C21.9 42.1 21.8 42.4 21.7 42.8C22.4 42.9 23.2 42.9 24 42.9C35 42.9 43.9 34 43.9 23C43.9 11.9 35 3 24 3Z" fill="#7c5ee2"/>
<path d="M17.7 40.6C17.7 40.8 17.9 41 18.1 41V40.2C17.8 40.3 17.7 40.5 17.7 40.6Z" fill="#7c5ee2"/>
<path d="M18.7 41.9V42.9C19 42.8 19.1 42.6 19.1 42.4C19.1 42.1 18.9 42 18.7 41.9Z" fill="#7c5ee2"/>
<path d="M18.4 37.6C16.2 37.6 14.5 39.3 14.5 41.5C14.5 43.7 16.2 45.4 18.4 45.4C20.6 45.4 22.3 43.7 22.3 41.5C22.3 39.3 20.6 37.6 18.4 37.6ZM18.7 43.4V43.7C18.7 43.8 18.7 43.9 18.6 44C18.5 44.1 18.5 44 18.4 44C18.3 44 18.2 43.9 18.2 43.9C18.2 43.9 18.1 43.7 18.1 43.6V43.3C17.5 43.2 17.2 42.9 17.1 42.7C17 42.7 17 42.5 17 42.4C17 42.3 17.1 42.1 17.3 42.1C17.5 42.1 17.6 42.3 17.6 42.4C17.7 42.6 17.8 42.8 18 42.9C18.1 42.9 18.1 43 18.2 43V41.9C18 41.8 17.8 41.8 17.7 41.7C17.5 41.6 17.4 41.5 17.3 41.4C17.1 41.1 17 41 17 40.8C17 40.2 17.4 39.9 18.1 39.8V39.4C18.1 39.3 18.2 39.2 18.2 39.1C18.2 39 18.3 39 18.4 39C18.5 39 18.6 39.1 18.6 39.1C18.7 39.2 18.7 39.3 18.7 39.4V39.7C18.8 39.7 18.9 39.8 19 39.8C19.4 39.9 19.7 40.2 19.7 40.6C19.7 40.8 19.6 41 19.4 41C19.2 41 19.1 40.9 19 40.7C18.9 40.5 18.8 40.4 18.7 40.4C18.6 40.4 18.6 40.3 18.6 40.3V41.2C18.8 41.3 18.9 41.3 19 41.3C19.2 41.4 19.3 41.4 19.4 41.5C19.5 41.6 19.6 41.7 19.7 41.8C19.8 41.9 19.8 42.1 19.8 42.3C19.8 42.8 19.4 43.3 18.7 43.4Z" fill="#7c5ee2"/>
</svg>
