<svg width="32" height="32" viewBox="0 0 32 32" fill="none" xmlns="http://www.w3.org/2000/svg">
<g clip-path="url(#clip0_8905_65658)">
<path d="M18.2886 13.79C19.6286 13.805 20.6636 14.59 20.3286 15.465C20.3186 15.485 20.3086 15.51 20.2986 15.53L20.2936 15.54C20.1336 15.84 20.2736 16.195 20.5986 16.34C20.6886 16.38 20.7836 16.4 20.8836 16.4H23.3936C23.7536 16.4 24.0486 16.67 24.0486 17V19.29C24.0486 19.62 24.3436 19.89 24.7036 19.89C24.8036 19.89 24.8986 19.87 24.9886 19.83L24.9986 19.825C25.0236 19.815 25.0436 19.805 25.0686 19.795C25.1936 19.755 25.3136 19.735 25.4336 19.735C26.2386 19.735 26.8886 20.59 26.9036 21.655C26.8886 22.72 26.2336 23.575 25.4336 23.575C25.3136 23.575 25.1936 23.555 25.0686 23.515C25.0436 23.505 25.0186 23.5 24.9986 23.485V23.49C24.9086 23.45 24.8086 23.43 24.7136 23.43C24.4686 23.43 24.2336 23.555 24.1186 23.77C24.0736 23.85 24.0536 23.94 24.0536 24.03V26.32C24.0536 26.65 23.7586 26.92 23.3936 26.92H20.8836C20.5186 26.92 20.2236 26.65 20.2236 26.32C20.2236 26.23 20.2436 26.14 20.2886 26.06L20.2936 26.05C20.3036 26.03 20.3136 26.01 20.3236 25.985C20.6586 25.11 19.6236 24.325 18.2836 24.31C16.9436 24.325 15.9086 25.11 16.2436 25.985C16.2536 26.005 16.2636 26.03 16.2736 26.05L16.2786 26.06C16.4386 26.36 16.2986 26.715 15.9736 26.86C15.8836 26.9 15.7886 26.92 15.6886 26.92H13.1786C12.8136 26.92 12.5186 26.65 12.5186 26.32V24.03C12.5186 23.7 12.8136 23.43 13.1736 23.43C13.2736 23.43 13.3686 23.45 13.4586 23.49L13.4686 23.495C13.4936 23.505 13.5136 23.515 13.5386 23.525C13.6636 23.565 13.7836 23.585 13.9036 23.585C14.7086 23.585 15.3586 22.73 15.3736 21.665C15.3586 20.6 14.7086 19.74 13.9036 19.74C13.7836 19.74 13.6636 19.76 13.5386 19.8C13.5136 19.81 13.4936 19.815 13.4686 19.83L13.4586 19.835C13.3686 19.875 13.2686 19.895 13.1736 19.895C12.9286 19.895 12.6936 19.77 12.5786 19.555C12.5336 19.475 12.5136 19.385 12.5136 19.295V17C12.5136 16.67 12.8086 16.4 13.1736 16.4H15.6836C16.0486 16.4 16.3436 16.13 16.3436 15.8C16.3436 15.71 16.3236 15.62 16.2786 15.54L16.2736 15.53C16.2636 15.51 16.2536 15.49 16.2436 15.465C15.9136 14.59 16.9536 13.805 18.2886 13.79ZM18.2886 12.71H18.2736C17.0686 12.725 15.9886 13.22 15.4536 14.005C15.1836 14.405 15.0636 14.865 15.1086 15.32H13.1736C12.2136 15.32 11.4336 16.075 11.4336 17V19.285C11.4336 19.55 11.4986 19.815 11.6236 20.055C11.9236 20.62 12.5136 20.97 13.1736 20.97C13.4236 20.97 13.6636 20.92 13.8886 20.82C13.8936 20.82 13.8986 20.82 13.9036 20.82C13.9986 20.82 14.2786 21.12 14.2886 21.66C14.2836 22.2 14.0036 22.5 13.9086 22.5C13.9036 22.5 13.8986 22.5 13.8886 22.5C13.6536 22.4 13.4186 22.35 13.1736 22.35C12.7236 22.35 12.3036 22.515 11.9786 22.81C11.6336 23.125 11.4336 23.575 11.4336 24.035V26.325C11.4336 27.255 12.2136 28.005 13.1736 28.005H15.6836C15.9336 28.005 16.1786 27.955 16.4086 27.855C16.8436 27.665 17.1836 27.3 17.3336 26.86C17.4686 26.48 17.4536 26.055 17.2936 25.685C17.4236 25.575 17.7536 25.405 18.2836 25.395C18.8086 25.405 19.1436 25.575 19.2736 25.685C19.1886 25.885 19.1436 26.105 19.1436 26.325C19.1436 27.25 19.9236 28.005 20.8836 28.005H23.3936C24.3536 28.005 25.1336 27.25 25.1336 26.325V24.645C25.2386 24.66 25.3386 24.665 25.4386 24.665C26.8486 24.665 27.9686 23.355 27.9936 21.68V21.665V21.65C27.9686 19.975 26.8486 18.665 25.4386 18.665C25.3336 18.665 25.2336 18.67 25.1336 18.685V17C25.1336 16.075 24.3586 15.32 23.3986 15.32H21.4586C21.5036 14.86 21.3836 14.405 21.1136 14.005C20.5836 13.22 19.5036 12.725 18.2986 12.71H18.2886Z" fill="#7C5EE2"/>
<path d="M23.085 7.5H15.005V5.5C15.005 4.67 14.335 4 13.505 4H5.5C4.67 4 4 4.67 4 5.5V13.18C4 14.01 4.67 14.68 5.5 14.68H7.5V23.085C7.5 23.865 8.135 24.5 8.915 24.5H11.98V24.03C11.98 23.72 12.115 23.42 12.35 23.205C12.575 23 12.87 22.89 13.18 22.885C13.355 22.885 13.53 22.92 13.685 22.99C13.78 23.025 13.845 23.035 13.91 23.035C14.405 23.035 14.83 22.4 14.84 21.65C14.83 20.91 14.405 20.275 13.91 20.275C13.845 20.275 13.78 20.285 13.71 20.31C13.525 20.39 13.355 20.43 13.18 20.43C12.725 20.43 12.315 20.19 12.11 19.805C12.025 19.645 11.98 19.47 11.98 19.29V17C11.98 16.37 12.52 15.86 13.18 15.86H15.69C15.77 15.86 15.81 15.815 15.81 15.8C15.785 15.755 15.765 15.71 15.75 15.67C15.57 15.205 15.63 14.725 15.91 14.31C16.345 13.67 17.255 13.265 18.285 13.255C19.33 13.265 20.24 13.67 20.675 14.31C20.955 14.725 21.015 15.205 20.84 15.665C20.82 15.715 20.8 15.76 20.775 15.8C20.78 15.82 20.795 15.835 20.825 15.85C20.845 15.86 20.87 15.865 20.895 15.865H23.405C23.9 15.865 24.32 16.155 24.505 16.56V8.915C24.5 8.135 23.865 7.5 23.085 7.5ZM8.035 12.935H5.835C5.695 12.935 5.585 12.825 5.585 12.685V5.995C5.585 5.855 5.695 5.745 5.835 5.745H8.035C8.175 5.745 8.285 5.855 8.285 5.995C8.285 6.135 8.175 6.245 8.035 6.245H6.085V12.43H8.035C8.175 12.43 8.285 12.54 8.285 12.68C8.285 12.82 8.175 12.935 8.035 12.935ZM9.75 11.01C9.75 11.15 9.64 11.26 9.5 11.26C9.36 11.26 9.25 11.15 9.25 11.01V9.59H7.67C7.53 9.59 7.42 9.48 7.42 9.34C7.42 9.2 7.53 9.09 7.67 9.09H9.255V7.67C9.255 7.53 9.365 7.42 9.505 7.42C9.645 7.42 9.755 7.53 9.755 7.67V9.09H11.34C11.48 9.09 11.59 9.2 11.59 9.34C11.59 9.48 11.48 9.59 11.34 9.59H9.75V11.01ZM13.42 12.685C13.42 12.825 13.31 12.935 13.17 12.935H10.97C10.83 12.935 10.72 12.825 10.72 12.685C10.72 12.545 10.83 12.435 10.97 12.435H12.92V6.245H10.97C10.83 6.245 10.72 6.135 10.72 5.995C10.72 5.855 10.83 5.745 10.97 5.745H13.17C13.31 5.745 13.42 5.855 13.42 5.995V12.685Z" fill="#7C5EE2"/>
</g>
<defs>
<clipPath id="clip0_8905_65658">
<rect width="24" height="24" fill="white" transform="translate(4 4)"/>
</clipPath>
</defs>
</svg>
