<svg width="32" height="32" viewBox="0 0 32 32" fill="none" xmlns="http://www.w3.org/2000/svg">
    <path d="M15.3333 27.7333C18.622 27.7333 21.776 26.4268 24.1014 24.1014C26.4269 21.7759 27.7333 18.6219 27.7333 15.3333C27.7333 12.0446 26.4269 8.89058 24.1014 6.56513C21.776 4.23968 18.622 2.93325 15.3333 2.93325C12.0446 2.93325 8.89064 4.23968 6.56519 6.56513C4.23974 8.89058 2.93331 12.0446 2.93331 15.3333C2.93331 18.6219 4.23974 21.7759 6.56519 24.1014C8.89064 26.4268 12.0446 27.7333 15.3333 27.7333ZM15.3333 29.3333C7.60131 29.3333 1.33331 23.0653 1.33331 15.3333C1.33331 7.60125 7.60131 1.33325 15.3333 1.33325C23.0653 1.33325 29.3333 7.60125 29.3333 15.3333C29.3333 23.0653 23.0653 29.3333 15.3333 29.3333Z" fill="#5981E3"/>
    <path d="M6 14.6668H8.66667V16.0002H6V14.6668ZM22 14.6668H24.6667V16.0002H22V14.6668ZM17.332 18.1175C17.332 17.6375 17.1787 17.2415 16.8747 16.9282C16.5693 16.6148 16.0613 16.3335 15.3507 16.0815C14.64 15.8308 14.0867 15.5975 13.692 15.3842C12.3773 14.6775 11.72 13.6348 11.72 12.2522C11.72 11.3148 12.0053 10.5455 12.5747 9.94148C13.1453 9.33748 13.9187 8.98015 14.8947 8.86682V7.02148H16.248V8.88415C17.2307 9.02415 17.9893 9.44015 18.5253 10.1322C19.0613 10.8228 19.3293 11.7215 19.3293 12.8282H17.28C17.28 12.1162 17.12 11.5562 16.8013 11.1482C16.4813 10.7388 16.0493 10.5348 15.5027 10.5348C14.96 10.5348 14.5373 10.6815 14.232 10.9748C13.928 11.2682 13.776 11.6882 13.776 12.2348C13.776 12.7255 13.9267 13.1202 14.2293 13.4162C14.5307 13.7122 15.0427 13.9922 15.764 14.2575C16.4867 14.5242 17.0533 14.7682 17.4653 14.9948C17.8787 15.2202 18.2253 15.4775 18.5067 15.7682C18.7893 16.0588 19.0067 16.3948 19.1587 16.7722C19.3107 17.1495 19.3867 17.5922 19.3867 18.1002C19.3867 19.0535 19.0947 19.8268 18.5107 20.4202C17.9267 21.0122 17.1133 21.3615 16.0693 21.4695V23.1188H14.7227V21.4775C13.6067 21.3535 12.7467 20.9522 12.1467 20.2762C11.5467 19.5988 11.2453 18.7015 11.2453 17.5842H13.3013C13.3013 18.2948 13.4813 18.8455 13.8387 19.2348C14.1973 19.6242 14.704 19.8188 15.3587 19.8188C16.0013 19.8188 16.492 19.6628 16.8267 19.3522C17.1627 19.0428 17.3307 18.6308 17.3307 18.1175H17.332Z" fill="#5981E3"/>
</svg>
