<svg width="38" height="27" viewBox="0 0 38 27" fill="none" xmlns="http://www.w3.org/2000/svg">
<path fill-rule="evenodd" clip-rule="evenodd" d="M4.04473 5.67666H22.6261C23.2687 5.67666 23.8074 5.22933 23.8761 4.63933L23.9701 3.838C24.0494 3.15133 23.4667 2.55133 22.7201 2.55133H3.95473C3.20873 2.55133 2.6274 3.148 2.70407 3.83266L2.79407 4.63533C2.86073 5.22666 3.40007 5.67666 4.04473 5.67666ZM4.87607 8.16133H14.7127V8.162C14.9901 8.162 15.2154 7.93533 15.2154 7.65533C15.2154 7.37533 14.9901 7.14866 14.7127 7.14866H4.87607C4.59807 7.14866 4.37273 7.37533 4.37273 7.65466C4.37273 7.93466 4.59807 8.16133 4.87607 8.16133ZM5.5234 10.6867H14.0654V10.6873C14.3427 10.6873 14.5681 10.4607 14.5681 10.1807C14.5681 9.90066 14.3427 9.674 14.0654 9.674H5.5234C5.2454 9.674 5.02007 9.90066 5.02007 10.1807C5.02007 10.46 5.2454 10.6867 5.5234 10.6867ZM6.17007 13.2153H13.4181V13.216C13.6954 13.216 13.9207 12.9893 13.9207 12.7093C13.9207 12.43 13.6954 12.2027 13.4181 12.2027H6.17007C5.89207 12.2027 5.66673 12.43 5.66673 12.7093C5.66673 12.9887 5.89207 13.2153 6.17007 13.2153ZM19.1061 13.018C18.3394 13.018 17.7934 12.6413 17.7634 12.2893L17.4207 8.134C17.4114 8.00933 17.4607 7.88666 17.5681 7.76933C17.8081 7.50666 18.2661 7.34333 18.7627 7.34333H19.3721C19.8641 7.34333 20.3207 7.50466 20.5621 7.764C20.6707 7.88066 20.7207 8.00266 20.7141 8.12666L20.4474 12.282C20.4247 12.6373 19.8794 13.018 19.1061 13.018ZM17.0954 12.346C17.1594 13.114 18.0241 13.6927 19.1061 13.6927C20.2021 13.6927 21.0661 13.1053 21.1167 12.326L21.3834 8.17C21.4034 7.85733 21.2881 7.55733 21.0514 7.30266C20.6814 6.90533 20.0541 6.668 19.3721 6.668H18.7627C18.0747 6.668 17.4434 6.90866 17.0747 7.312C16.8381 7.57066 16.7261 7.874 16.7527 8.19L17.0954 12.3453V12.346ZM7.34273 18.2447H19.7147C20.4934 18.2447 21.1541 17.852 21.2681 17.3213L21.5681 15.9213C21.7074 15.2693 21.6441 14.684 20.6854 14.684H6.30807C5.33007 14.684 5.26073 15.292 5.43273 15.954L5.7974 17.3553C5.9314 17.87 6.58273 18.2447 7.34273 18.2447Z" fill="#5981E3"/>
<path fill-rule="evenodd" clip-rule="evenodd" d="M23.6848 0H2.98276C1.13209 0 -0.271911 1.68 0.044756 3.51467L2.67142 18.728C2.92009 20.1647 4.15942 21.2147 5.60942 21.2147H21.0581C22.5074 21.2147 23.7474 20.1653 23.9954 18.728L26.6221 3.51467C26.9394 1.67933 25.5348 0 23.6848 0ZM23.6848 1.35C24.1701 1.35 24.6274 1.56467 24.9401 1.938C25.2528 2.312 25.3841 2.80267 25.3001 3.28333L22.6734 18.4967C22.5368 19.29 21.8574 19.8647 21.0581 19.8647H5.60942C4.80942 19.8647 4.12942 19.2893 3.99342 18.496L1.36609 3.28333C1.28342 2.80333 1.41542 2.312 1.72742 1.938C2.03942 1.56467 2.49742 1.35 2.98276 1.35H23.6848Z" fill="#5981E3"/>
<path fill-rule="evenodd" clip-rule="evenodd" d="M16.2061 11C15.5407 11 15 11.5561 15 12.2406V23.7608C15 24.4439 15.5407 25 16.2068 25H34.7925C35.4586 25 36 24.4439 36 23.7608V12.2406C36 11.5561 35.4586 11 34.7925 11H16.2061Z" fill="#F0F4FF"/>
<path d="M15.2507 12.8892C15.2507 12.3779 15.6676 11.9612 16.1814 11.9612H34.3761C34.8908 11.9612 35.3081 12.3781 35.3081 12.8892V23.8279C35.3081 24.3375 34.891 24.7546 34.3761 24.7546H16.1821C15.6673 24.7546 15.2507 24.3377 15.2507 23.8279V12.8892ZM16.1821 26.5832H34.3767C35.9006 26.5832 37.1414 25.3482 37.1414 23.8279V12.8892C37.1414 11.3676 35.9 10.1326 34.3761 10.1326H16.1814C14.6574 10.1326 13.4167 11.3678 13.4167 12.8899V23.8266C13.4167 25.3482 14.6582 26.5832 16.1821 26.5832Z" fill="#5981E3" stroke="#F0F4FF" stroke-width="0.5"/>
<path fill-rule="evenodd" clip-rule="evenodd" d="M25.2628 24.1298C24.8121 24.1298 24.3608 23.9585 24.0181 23.6165L14.2381 13.8732C13.5528 13.1898 13.5528 12.0765 14.2381 11.3932L15.1815 12.3325C15.0148 12.4985 15.0148 12.7678 15.1815 12.9338L24.9601 22.6772C25.1261 22.8425 25.3975 22.8438 25.5648 22.6772L35.3448 12.9332C35.5115 12.7665 35.5115 12.4978 35.3448 12.3318L36.2875 11.3918C36.9735 12.0758 36.9735 13.1892 36.2875 13.8718L26.5068 23.6172C26.1648 23.9592 25.7135 24.1305 25.2621 24.1305" fill="#5981E3"/>
<path fill-rule="evenodd" clip-rule="evenodd" d="M14.3127 24.3619L15.0734 25.4526L21.8954 20.7299L21.1354 19.6385L14.3127 24.3619ZM29.0221 20.7299L35.8447 25.4526L36.6054 24.3619L29.7821 19.6385L29.0221 20.7299Z" fill="#5981E3"/>
</svg>
