<svg width="44" height="44" viewBox="0 0 44 44" fill="none" xmlns="http://www.w3.org/2000/svg">
<rect x="0.5" y="0.5" width="43" height="43" rx="21.5" fill="#F0F4FF"/>
<path fill-rule="evenodd" clip-rule="evenodd" d="M14 22C14 17.5817 17.5817 14 22 14C26.4183 14 30 17.5817 30 22C30 26.4183 26.4183 30 22 30C17.5817 30 14 26.4183 14 22ZM22 15C18.134 15 15 18.134 15 22C15 25.866 18.134 29 22 29C25.866 29 29 25.866 29 22C29 18.134 25.866 15 22 15ZM21 19C21 18.4477 21.4477 18 22 18C22.5523 18 23 18.4477 23 19C23 19.5523 22.5523 20 22 20C21.4477 20 21 19.5523 21 19ZM21 21H21.5C22.3284 21 23 21.6716 23 22.5V26H22V22.5C22 22.2239 21.7761 22 21.5 22H21V21Z" fill="#355CC0"/>
<rect x="0.5" y="0.5" width="43" height="43" rx="21.5" stroke="#BED1FF"/>
</svg>
