<svg width="16" height="16" viewBox="0 0 16 16" fill="none" xmlns="http://www.w3.org/2000/svg">
<path d="M8 0.25C3.71875 0.25 0.25 3.71875 0.25 8C0.25 12.2812 3.71875 15.75 8 15.75C12.2812 15.75 15.75 12.2812 15.75 8C15.75 3.71875 12.2812 0.25 8 0.25ZM8 14.75C4.25 14.75 1.25 11.75 1.25 8C1.25 4.28125 4.25 1.25 8 1.25C11.7188 1.25 14.75 4.28125 14.75 8C14.75 11.75 11.7188 14.75 8 14.75ZM9.25 7.84375L7 7.21875C6.625 7.125 6.34375 6.78125 6.34375 6.375C6.34375 5.90625 6.75 5.5 7.25 5.5H8.65625C9 5.5 9.34375 5.625 9.59375 5.84375C9.71875 5.90625 9.84375 5.90625 9.9375 5.8125L10.2812 5.4375C10.375 5.34375 10.375 5.15625 10.25 5.0625C9.8125 4.71875 9.25 4.5 8.65625 4.5H8.5V3.25C8.5 3.125 8.375 3 8.25 3H7.75C7.59375 3 7.5 3.125 7.5 3.25V4.5H7.25C6.1875 4.5 5.34375 5.34375 5.34375 6.375C5.34375 7.21875 5.90625 7.9375 6.71875 8.1875L8.96875 8.8125C9.34375 8.90625 9.625 9.25 9.625 9.65625C9.625 10.125 9.21875 10.5 8.71875 10.5H7.3125C6.96875 10.5 6.625 10.4062 6.375 10.1875C6.25 10.125 6.125 10.125 6.03125 10.2188L5.6875 10.5938C5.59375 10.6875 5.59375 10.875 5.71875 10.9688C6.15625 11.3125 6.71875 11.5 7.3125 11.5H7.5V12.75C7.5 12.9062 7.59375 13 7.75 13H8.25C8.375 13 8.5 12.9062 8.5 12.75V11.5H8.71875C9.78125 11.5 10.625 10.6875 10.625 9.65625C10.625 8.8125 10.0625 8.0625 9.25 7.84375Z" fill="#707780"/>
</svg>
