<svg width="14" height="16" viewBox="0 0 14 16" fill="none" xmlns="http://www.w3.org/2000/svg">
<path d="M10.75 7.5H3.25C3.09375 7.5 3 7.625 3 7.75V8.25C3 8.40625 3.09375 8.5 3.25 8.5H10.75C10.875 8.5 11 8.40625 11 8.25V7.75C11 7.625 10.875 7.5 10.75 7.5ZM10.75 10.5H3.25C3.09375 10.5 3 10.625 3 10.75V11.25C3 11.4062 3.09375 11.5 3.25 11.5H10.75C10.875 11.5 11 11.4062 11 11.25V10.75C11 10.625 10.875 10.5 10.75 10.5ZM13.0625 0C12.875 0 12.6875 0.0625 12.5 0.1875L11.1562 1.15625L9.9375 0.3125C9.6875 0.125 9.375 0.03125 9.0625 0.03125C8.75 0.03125 8.46875 0.125 8.1875 0.3125L7 1.15625L5.78125 0.3125C5.53125 0.125 5.21875 0.03125 4.90625 0.03125C4.59375 0.03125 4.28125 0.125 4.03125 0.3125L2.8125 1.15625L1.46875 0.1875C1.28125 0.0625 1.09375 0 0.90625 0C0.4375 0.03125 0 0.40625 0 0.9375V15.0938C0 15.625 0.4375 16 0.90625 16C1.09375 16 1.28125 15.9688 1.46875 15.8438L2.8125 14.8438L4.03125 15.7188C4.28125 15.9062 4.59375 16 4.90625 16C5.21875 16 5.53125 15.9062 5.78125 15.7188L7 14.8438L8.1875 15.7188C8.46875 15.9062 8.75 16 9.0625 16C9.375 16 9.6875 15.9062 9.9375 15.7188L11.1562 14.8438L12.5 15.8438C12.6875 15.9688 12.875 16 13.0625 16C13.5312 16 13.9688 15.625 13.9688 15.0938V0.9375C14 0.40625 13.5312 0 13.0625 0ZM13 14.9375L11.75 14.0312L11.1562 13.625L10.5625 14.0312L9.375 14.9062C9.28125 14.9688 9.1875 15 9.0625 15C8.96875 15 8.875 14.9688 8.78125 14.9062L7.5625 14.0312L7 13.625L6.40625 14.0312L5.1875 14.9062C5.09375 14.9688 5 15 4.90625 15C4.78125 15 4.6875 14.9688 4.59375 14.9062L3.40625 14.0312L2.8125 13.625L2.25 14.0312L1 14.9688V1.09375L2.25 1.96875L2.8125 2.40625L3.40625 1.96875L4.625 1.125C4.6875 1.0625 4.8125 1.03125 4.90625 1.03125C5 1.03125 5.09375 1.0625 5.1875 1.125L6.40625 1.96875L7 2.40625L7.5625 1.96875L8.78125 1.125C8.875 1.0625 8.96875 1.03125 9.0625 1.03125C9.1875 1.03125 9.28125 1.0625 9.375 1.125L10.5625 1.96875L11.1562 2.40625L11.75 1.96875L13 1.09375V14.9375ZM10.75 4.5H3.25C3.09375 4.5 3 4.625 3 4.75V5.25C3 5.40625 3.09375 5.5 3.25 5.5H10.75C10.875 5.5 11 5.40625 11 5.25V4.75C11 4.625 10.875 4.5 10.75 4.5Z" fill="#707780"/>
</svg>
