<svg width="18" height="17" viewBox="0 0 18 17" fill="none" xmlns="http://www.w3.org/2000/svg">
<path d="M8 4.25L9.78125 4.75C10.0312 4.84375 10.25 5.09375 10.25 5.375C10.25 5.71875 9.9375 6 9.59375 6H8.4375C8.1875 6 7.9375 5.9375 7.75 5.78125C7.65625 5.71875 7.5 5.75 7.4375 5.8125L7.0625 6.1875C6.96875 6.28125 6.96875 6.46875 7.09375 6.5625C7.5 6.84375 7.96875 7 8.4375 7H8.5V7.75C8.5 7.90625 8.59375 8 8.75 8H9.25C9.375 8 9.5 7.90625 9.5 7.75V7H9.53125C10.25 7 10.9062 6.59375 11.1562 5.90625C11.4688 5 10.9062 4.03125 10.0625 3.78125L8.21875 3.28125C7.9375 3.1875 7.75 2.9375 7.75 2.65625C7.75 2.3125 8.03125 2 8.375 2H9.53125C9.78125 2 10.0312 2.09375 10.25 2.25C10.3438 2.3125 10.4688 2.28125 10.5312 2.1875L10.9062 1.84375C11 1.75 11 1.5625 10.875 1.46875C10.5 1.1875 10.0312 1 9.53125 1H9.5V0.25C9.5 0.125 9.375 0 9.25 0H8.75C8.59375 0 8.5 0.125 8.5 0.25V1H8.375C7.40625 1 6.65625 1.84375 6.75 2.8125C6.8125 3.5 7.34375 4.0625 8 4.25ZM17.4375 10.4375C16.8125 9.875 15.875 9.875 15.25 10.4062L13.3125 11.9375C13.25 12 13.1875 12 13.125 12H11.8125C11.9688 11.7188 12.0312 11.375 11.9688 11C11.8438 10.125 11.0312 9.5 10.1562 9.5H5.65625C5 9.5 4.375 9.71875 3.84375 10.125L2.65625 11H0.25C0.09375 11 0 11.125 0 11.25V11.75C0 11.9062 0.09375 12 0.25 12H3L4.4375 10.9062C4.8125 10.6562 5.21875 10.5 5.65625 10.5H10.25C10.6562 10.5 11 10.8438 11 11.25C11 11.6875 10.6562 12 10.25 12H7.5C7.21875 12 7 12.25 7 12.5C7 12.7812 7.21875 13 7.5 13H13.125C13.4062 13 13.7188 12.9062 13.9375 12.7188L15.875 11.1875C16.125 11 16.5 10.9375 16.75 11.1875C17.0938 11.4688 17.0625 11.9375 16.75 12.2188L13.5938 14.7188C13.3438 14.9062 13.0625 15.0312 12.75 15.0312H0.25C0.09375 15.0312 0 15.125 0 15.2812V15.7812C0 15.9062 0.09375 16.0312 0.25 16.0312H12.75C13.2812 16.0312 13.7812 15.8438 14.2188 15.5L17.375 12.9688C17.75 12.6875 17.9688 12.2188 18 11.7188C18 11.25 17.8125 10.7812 17.4375 10.4375Z" fill="#707780"/>
</svg>
