<svg width="14" height="16" viewBox="0 0 14 16" fill="none" xmlns="http://www.w3.org/2000/svg">
<path d="M11.125 5C11.3125 5 11.5 4.84375 11.5 4.625V4.375C11.5 4.1875 11.3125 4 11.125 4H5.875C5.65625 4 5.5 4.1875 5.5 4.375V4.625C5.5 4.84375 5.65625 5 5.875 5H11.125ZM11.5 6.625V6.375C11.5 6.1875 11.3125 6 11.125 6H5.875C5.65625 6 5.5 6.1875 5.5 6.375V6.625C5.5 6.84375 5.65625 7 5.875 7H11.125C11.3125 7 11.5 6.84375 11.5 6.625ZM13.5 15C13.375 14.375 13.4062 13.4688 13.5312 12.9688C13.7812 12.8438 14 12.5625 14 12.25V0.75C14 0.34375 13.6562 0 13.25 0H2.5C1.09375 0 0 1.125 0 2.5V13.5C0 14.9062 1.09375 16 2.5 16H13.625C13.8125 16 14 15.8438 14 15.625V15.375C14 15.1875 13.8125 15 13.625 15H13.5ZM4 12V1H13V12H4ZM1 12.5V2.5C1 1.6875 1.65625 1 2.5 1H3V12H2.5C1.9375 12 1.40625 12.1875 1 12.5ZM12.625 15H2.5C0.5 15 0.5 13 2.5 13H12.625C12.5312 13.5938 12.5312 14.375 12.625 15Z" fill="#707780"/>
</svg>
