<svg viewBox="0 0 24 24" fill="none" xmlns="http://www.w3.org/2000/svg">
<path d="M12 0.375C5.57812 0.375 0.375 5.57812 0.375 12C0.375 18.4219 5.57812 23.625 12 23.625C18.4219 23.625 23.625 18.4219 23.625 12C23.625 5.57812 18.4219 0.375 12 0.375ZM12 22.125C6.375 22.125 1.875 17.625 1.875 12C1.875 6.42188 6.375 1.875 12 1.875C17.5781 1.875 22.125 6.42188 22.125 12C22.125 17.625 17.5781 22.125 12 22.125ZM13.875 11.7656L10.5 10.8281C9.9375 10.6875 9.51562 10.1719 9.51562 9.5625C9.51562 8.85938 10.125 8.25 10.875 8.25H12.9844C13.5 8.25 14.0156 8.4375 14.3906 8.76562C14.5781 8.85938 14.7656 8.85938 14.9062 8.71875L15.4219 8.15625C15.5625 8.01562 15.5625 7.73438 15.375 7.59375C14.7188 7.07812 13.875 6.75 12.9844 6.75H12.75V4.875C12.75 4.6875 12.5625 4.5 12.375 4.5H11.625C11.3906 4.5 11.25 4.6875 11.25 4.875V6.75H10.875C9.28125 6.75 8.01562 8.01562 8.01562 9.5625C8.01562 10.8281 8.85938 11.9062 10.0781 12.2812L13.4531 13.2188C14.0156 13.3594 14.4375 13.875 14.4375 14.4844C14.4375 15.1875 13.8281 15.75 13.0781 15.75H10.9688C10.4531 15.75 9.9375 15.6094 9.5625 15.2812C9.375 15.1875 9.1875 15.1875 9.04688 15.3281L8.53125 15.8906C8.39062 16.0312 8.39062 16.3125 8.57812 16.4531C9.23438 16.9688 10.0781 17.25 10.9688 17.25H11.25V19.125C11.25 19.3594 11.3906 19.5 11.625 19.5H12.375C12.5625 19.5 12.75 19.3594 12.75 19.125V17.25H13.0781C14.6719 17.25 15.9375 16.0312 15.9375 14.4844C15.9375 13.2188 15.0938 12.0938 13.875 11.7656Z" fill="#707780
"/>
</svg>
