<svg width="56" height="52" viewBox="0 0 56 52" fill="none" xmlns="http://www.w3.org/2000/svg">
<rect width="56" height="52" rx="4" fill="#EDFFFF"/>
<path d="M28.6375 26.4C27.325 26.4 25.7875 26.9625 24.7 27.7125C23.7625 28.35 23.05 28.9875 20.8 28.9875H18.4C17.05 28.9875 16 30.15 16 31.575C16 33 17.05 34.2 18.4 34.2H20.8L22.9375 34.7625C24.1375 35.1375 25.375 35.4 26.9875 35.4C31.1125 35.4 35.2 33.3375 35.2 30.2625C35.2 27.7125 32.0125 26.4 28.6375 26.4ZM20.2 33H18.4C17.725 33 17.2 32.325 17.2 31.575C17.2 30.7875 17.725 30.1875 18.4 30.1875H20.2V33ZM23.2375 33.6L21.4 33.15V30.15C23.4625 30.075 24.4 29.4 25.2625 28.8C28.675 26.3625 34 28.0875 34 30.2625C34 32.625 29.425 35.4375 23.2375 33.6ZM31.7875 16.2C30.1375 16.2 28.9375 16.5 27.7375 16.875L25.6 17.4H23.2C21.85 17.4 20.8 18.6375 20.8 20.0625C20.8 21.4875 21.85 22.65 23.2 22.65H25.6C27.85 22.65 28.5625 23.2875 29.5 23.925C30.5875 24.675 32.125 25.2 33.4375 25.2C36.8125 25.2 40 23.925 40 21.375C40 18.3 35.9875 16.2 31.7875 16.2ZM25 21.45H23.2C22.525 21.45 22 20.85 22 20.0625C22 19.3125 22.525 18.6 23.2 18.6H25V21.45ZM33.4375 24C32.3875 24 31.1125 23.5875 30.2125 22.95C29.3125 22.3125 28.375 21.6 26.2 21.4875V18.4875L28.075 18C29.2 17.7 30.2875 17.4 31.7875 17.4C33.7375 17.4 38.8 18.4125 38.8 21.375C38.8 23.1 36.1 24 33.4375 24Z" fill="#51C1C3"/>
</svg>
