<svg width="16" height="16" viewBox="0 0 16 16" fill="none" xmlns="http://www.w3.org/2000/svg">
<path d="M16 8C16 6.875 15.5938 5.84375 14.9688 5C14.8438 4.8125 14.5625 4.8125 14.4062 4.96875L14.2188 5.15625C14.0938 5.28125 14.0938 5.46875 14.1875 5.625C14.6875 6.3125 15 7.125 15 8C15 10.2188 13.1875 12 11 12H3.4375L5.5625 9.875C5.71875 9.75 5.71875 9.5 5.5625 9.34375L5.40625 9.1875C5.25 9.03125 5 9.03125 4.875 9.1875L1.78125 12.25C1.65625 12.4062 1.65625 12.625 1.78125 12.7812L4.875 15.8438C5 16 5.25 16 5.40625 15.8438L5.5625 15.6875C5.71875 15.5312 5.71875 15.2812 5.5625 15.1562L3.4375 13H11C13.75 13 16 10.7812 16 8ZM1.78125 10.4062C1.28125 9.71875 1 8.90625 1 8C1 5.8125 2.78125 4 5 4H12.5312L10.4062 6.15625C10.25 6.28125 10.25 6.53125 10.4062 6.6875L10.5625 6.84375C10.7188 7 10.9688 7 11.0938 6.84375L14.1875 3.78125C14.3125 3.625 14.3125 3.40625 14.1875 3.25L11.0938 0.1875C10.9688 0.03125 10.7188 0.03125 10.5625 0.1875L10.4062 0.34375C10.25 0.5 10.25 0.75 10.4062 0.875L12.5312 3H5C2.21875 3 0 5.25 0 8C0 9.15625 0.375 10.1875 1 11.0312C1.125 11.2188 1.40625 11.2188 1.5625 11.0625L1.75 10.875C1.875 10.75 1.875 10.5625 1.78125 10.4062Z" fill="#707780"/>
</svg>
